<?xml version="1.0" encoding="UTF-8" standalone="no"?>
<svg version="1.1" preserveAspectRatio="xMidYMid meet" xmlns="http://www.w3.org/2000/svg" xmlns:xlink="http://www.w3.org/1999/xlink" viewBox="0 0 1000 1000" width="1000" height="1000">
	<defs>
		<path d="M298.757,500.000 A126.915,126.915 0 1 0 44.926,500.000 A126.915,126.915 0 1 0 298.757,500.000 Z" stroke-linecap="round" stroke-linejoin="round" stroke-miterlimit="25" id="def-09f90dac-ab14-4c79-86fe-f3fb5906c6a5"></path>
		<g id="def-7f729ec3-5c15-47dd-9ea6-1b74da6e3524">
			<use xlink:href="#def-09f90dac-ab14-4c79-86fe-f3fb5906c6a5" fill="none" stroke="#000" stroke-width="4.041"></use>
		</g>
		<g transform="matrix(4.361, 0.000, 0.000, 4.361, 99.048, 432.398)" fill="#000" stroke="none" stroke-width="1" id="def-aa2dd1fa-571f-442d-aaa8-078b59f8f6e0">
			<g transform="translate(0.500, 0.500)">
				<g>
					<path d=" M28.381,16 h-7 v-4 c0 -1.104 -0.896 -2 -2 -2 h-6 c-1.104,0 -2,0.896 -2,2 v4 h-7 c-0.553,0 -1,0.447 -1,1 v12 c0,0.553,0.447,1,1,1 h24 c0.553,0,1 -0.447,1 -1 V17 C29.381,16.447,28.934,16,28.381,16 z M9.381,27 c0,0.553 -0.447,1 -1,1 h-2 c-0.553,0 -1 -0.447 -1 -1 v-2 c0 -0.553,0.447 -1,1 -1 h2 c0.553,0,1,0.447,1,1 V27 z M9.381,21 c0,0.553 -0.447,1 -1,1 h-2 c-0.553,0 -1 -0.447 -1 -1 v-2 c0 -0.553,0.447 -1,1 -1 h2 c0.553,0,1,0.447,1,1 V21 z M15.381,27 c0,0.553 -0.447,1 -1,1 h-2 c-0.553,0 -1 -0.447 -1 -1 v-2 c0 -0.553,0.447 -1,1 -1 h2 c0.553,0,1,0.447,1,1 V27 z M15.381,21 c0,0.553 -0.447,1 -1,1 h-2 c-0.553,0 -1 -0.447 -1 -1 v-2 c0 -0.553,0.447 -1,1 -1 h2 c0.553,0,1,0.447,1,1 V21 z M21.381,27 c0,0.553 -0.447,1 -1,1 h-2 c-0.553,0 -1 -0.447 -1 -1 v-2 c0 -0.553,0.447 -1,1 -1 h2 c0.553,0,1,0.447,1,1 V27 z M21.381,21 c0,0.553 -0.447,1 -1,1 h-2 c-0.553,0 -1 -0.447 -1 -1 v-2 c0 -0.553,0.447 -1,1 -1 h2 c0.553,0,1,0.447,1,1 V21 z M27.381,27 c0,0.553 -0.447,1 -1,1 h-2 c-0.553,0 -1 -0.447 -1 -1 v-2 c0 -0.553,0.447 -1,1 -1 h2 c0.553,0,1,0.447,1,1 V27 z M27.381,21 c0,0.553 -0.447,1 -1,1 h-2 c-0.553,0 -1 -0.447 -1 -1 v-2 c0 -0.553,0.447 -1,1 -1 h2 c0.553,0,1,0.447,1,1 V21 z"></path>
					<polygon points="14.719,5.116 16.381,4.242 18.043,5.116 17.726,3.266 19.071,1.954 17.212,1.684 16.381,0 15.55,1.684    13.69,1.954 15.036,3.266  "></polygon>
					<polygon points="22.028,7.944 23.69,7.07 25.353,7.944 25.035,6.094 26.381,4.782 24.521,4.512 23.69,2.828 22.859,4.512 21,4.782    22.346,6.094  "></polygon>
					<polygon points="7.028,7.944 8.69,7.07 10.353,7.944 10.035,6.094 11.381,4.782 9.521,4.512 8.69,2.828 7.859,4.512 6,4.782    7.346,6.094  "></polygon>
					<polygon points="32.381,9.666 30.521,9.396 29.69,7.712 28.859,9.396 27,9.666 28.346,10.978 28.028,12.828 29.69,11.954    31.353,12.828 31.035,10.978  "></polygon>
					<polygon points="4.035,10.978 5.381,9.666 3.521,9.396 2.69,7.712 1.859,9.396 0,9.666 1.346,10.978 1.028,12.828 2.69,11.954    4.353,12.828  "></polygon>
				</g>
			</g>
		</g>
		<mask id="mask-3db1fc98-80b8-4d96-b34b-f800ce37f65d" x="-3.689" y="324.280" width="351.061" height="351.440" maskUnits="userSpaceOnUse" stroke-width="0">
			<rect x="12.269" y="340.238" width="319.146" height="319.525" fill="#fff"></rect>
			<use xlink:href="#def-7f729ec3-5c15-47dd-9ea6-1b74da6e3524"></use>
			<use xlink:href="#def-aa2dd1fa-571f-442d-aaa8-078b59f8f6e0"></use>
		</mask>
		<g mask="url(#mask-3db1fc98-80b8-4d96-b34b-f800ce37f65d)" id="def-08498adb-e1b8-467a-a7d8-7aec09dddbcf">
			<use xlink:href="#def-09f90dac-ab14-4c79-86fe-f3fb5906c6a5" stroke-width="12.124"></use>
		</g>
		<path d="M389.786,464.723 C401.545,464.723,410.084,457.934,410.084,448.135 C410.084,441.976,405.955,438.826,396.016,436.446 C388.666,434.627,385.867,432.947,385.867,430.147 C385.867,425.038,390.486,421.188,397.346,421.188 C401.405,421.188,406.445,423.428,409.594,426.927 L414.354,421.958 C410.434,417.758,403.925,414.959,398.045,414.959 C386.567,414.959,378.588,421.958,378.588,431.547 C378.588,437.776,383.137,440.576,392.726,442.886 C400.075,444.776,402.805,446.455,402.805,449.325 C402.805,454.575,397.765,458.494,390.276,458.494 C385.307,458.494,379.637,455.904,376.278,451.985 L371.308,456.814 C375.298,461.504,382.717,464.723,389.786,464.723 Z M424.923,463.954 L431.992,463.954 L435.561,447.225 L448.510,447.225 C460.199,447.225,469.928,439.106,469.928,429.167 C469.928,421.328,463.768,415.869,454.879,415.869 L434.932,415.869 Z M436.891,440.646 L440.671,422.448 L453.410,422.448 C459.009,422.448,462.859,425.318,462.859,429.447 C462.859,435.467,456.699,440.646,449.490,440.646 Z M502.614,464.793 C518.713,464.793,532.921,451.285,532.921,435.397 C532.921,423.918,524.452,415.029,512.553,415.029 C496.385,415.029,482.247,428.467,482.247,444.426 C482.247,455.554,491.346,464.793,502.614,464.793 Z M503.594,458.284 C495.825,458.284,489.386,451.775,489.386,444.006 C489.386,431.967,499.675,421.538,511.643,421.538 C519.973,421.538,525.782,427.697,525.782,435.677 C525.782,447.225,515.633,458.284,503.594,458.284 Z M590.175,429.167 C590.175,421.328,584.016,415.869,575.127,415.869 L555.179,415.869 L545.170,463.954 L552.239,463.954 L555.809,447.225 L566.868,447.225 L577.016,463.954 L584.856,463.954 L574.357,446.595 C583.386,444.496,590.175,437.496,590.175,429.167 Z M569.737,440.646 L557.139,440.646 L560.918,422.448 L573.657,422.448 C579.256,422.448,583.106,425.318,583.106,429.447 C583.106,435.467,576.946,440.646,569.737,440.646 Z M614.113,463.954 L621.182,463.954 L629.861,422.448 L645.609,422.448 L647.009,415.869 L608.373,415.869 L606.973,422.448 L622.792,422.448 Z M727.291,422.448 L728.620,415.869 L693.274,415.869 L683.265,463.954 L718.611,463.954 L720.011,457.374 L691.874,457.374 L694.814,442.746 L720.361,442.746 L721.691,436.166 L696.284,436.166 L699.014,422.448 Z M784.334,415.869 L759.487,454.925 L750.808,415.869 L743.179,415.869 L753.818,463.884 L753.748,463.954 L761.657,463.954 L792.314,415.869 Z M842.498,422.448 L843.828,415.869 L808.482,415.869 L798.473,463.954 L833.819,463.954 L835.219,457.374 L807.082,457.374 L810.022,442.746 L835.569,442.746 L836.899,436.166 L811.492,436.166 L814.221,422.448 Z M852.647,463.954 L859.716,463.954 L867.486,427.487 L887.504,463.954 L894.433,463.954 L904.442,415.869 L897.372,415.869 L889.673,452.335 L869.655,415.869 L862.656,415.869 Z M928.239,463.954 L935.308,463.954 L943.988,422.448 L959.736,422.448 L961.136,415.869 L922.500,415.869 L921.100,422.448 L936.918,422.448 Z M450.438,495.690 L442.895,532.762 L395.085,532.762 L402.500,495.690 L389.589,495.690 L371.308,583.512 L384.220,583.512 L392.145,544.778 L440.083,544.778 L432.157,583.512 L445.069,583.512 L463.349,495.690 Z M523.175,585.046 C552.577,585.046,578.528,560.374,578.528,531.355 C578.528,510.391,563.060,494.156,541.328,494.156 C511.798,494.156,485.976,518.700,485.976,547.846 C485.976,568.172,502.594,585.046,523.175,585.046 Z M524.965,573.157 C510.776,573.157,499.015,561.269,499.015,547.079 C499.015,525.091,517.806,506.044,539.666,506.044 C554.878,506.044,565.489,517.294,565.489,531.867 C565.489,552.959,546.953,573.157,524.965,573.157 Z M625.315,583.512 L638.226,583.512 L654.078,507.706 L682.840,507.706 L685.397,495.690 L614.833,495.690 L612.276,507.706 L641.166,507.706 Z M778.844,507.706 L781.273,495.690 L716.717,495.690 L698.436,583.512 L762.993,583.512 L765.549,571.495 L714.160,571.495 L719.529,544.778 L766.188,544.778 L768.617,532.762 L722.213,532.762 L727.199,507.706 Z M810.419,571.495 L826.015,495.690 L812.976,495.690 L794.695,583.512 L854.266,583.512 L856.823,571.495 Z M916.266,584.918 C937.742,584.918,953.338,572.518,953.338,554.621 C953.338,543.372,945.796,537.619,927.643,533.273 C914.221,529.949,909.107,526.881,909.107,521.768 C909.107,512.436,917.544,505.405,930.072,505.405 C937.486,505.405,946.690,509.496,952.443,515.887 L961.136,506.811 C953.977,499.141,942.088,494.028,931.350,494.028 C910.386,494.028,895.812,506.811,895.812,524.324 C895.812,535.702,904.122,540.815,921.635,545.034 C935.058,548.485,940.043,551.553,940.043,556.794 C940.043,566.382,930.839,573.541,917.161,573.541 C908.085,573.541,897.730,568.811,891.594,561.652 L882.518,570.473 C889.804,579.038,903.355,584.918,916.266,584.918 Z" id="def-23fae2e3-d0be-4fe2-ada6-42c16c84ff52"></path>
		<mask id="mask-c9c6ba14-3647-401e-92e5-f039f163e6c1" x="-3.689" y="324.280" width="351.061" height="351.440" maskUnits="userSpaceOnUse" stroke-width="0">
			<rect x="12.269" y="340.238" width="319.146" height="319.525" fill="#000"></rect>
			<use xlink:href="#def-08498adb-e1b8-467a-a7d8-7aec09dddbcf" fill="#fff" stroke="#fff"></use>
		</mask>
		<mask id="mask-2fe9c08a-a54f-42e4-815e-f1c835d91f3f" x="344.094" y="387.740" width="644.257" height="224.521" maskUnits="userSpaceOnUse" stroke-width="0">
			<rect x="354.299" y="397.945" width="623.846" height="204.110" fill="#000"></rect>
			<use xlink:href="#def-23fae2e3-d0be-4fe2-ada6-42c16c84ff52" fill="#fff" stroke="#fff"></use>
		</mask>
	</defs>
	<rect id="background-shape-6a8bf1e6-50fd-40a4-8589-100e734288cf" x="0" y="0" width="1000" height="1000" fill="#ffffff"></rect>
	<g mask="url(#mask-c9c6ba14-3647-401e-92e5-f039f163e6c1)">
		<rect x="12.269" y="340.238" width="319.146" height="319.525" fill="#00c7ff"></rect>
	</g>
	<g mask="url(#mask-2fe9c08a-a54f-42e4-815e-f1c835d91f3f)">
		<rect x="354.299" y="397.945" width="623.846" height="204.110" fill="#00c7ff"></rect>
	</g>
</svg>
