<?xml version="1.0" encoding="UTF-8" standalone="no"?>
<svg version="1.1" preserveAspectRatio="xMidYMid meet" xmlns="http://www.w3.org/2000/svg" xmlns:xlink="http://www.w3.org/1999/xlink" viewBox="0 0 1000 1000" width="1000" height="1000">
	<defs>
		<path d="M810.492,500.000 A310.492,310.492 0 1 0 189.508,500.000 A310.492,310.492 0 1 0 810.492,500.000 Z" stroke-linecap="round" stroke-linejoin="round" stroke-miterlimit="25" id="def-dfeb6005-f128-494a-b139-56365135f4f4"></path>
		<g id="def-76b6043f-3e20-4b7f-9f6e-0c2f5caeddaf">
			<use xlink:href="#def-dfeb6005-f128-494a-b139-56365135f4f4" fill="none" stroke="#000" stroke-width="9.887"></use>
		</g>
		<g transform="matrix(10.670, 0.000, 0.000, 10.670, 321.913, 334.616)" fill="#000" stroke="none" stroke-width="1" id="def-2db8d376-5ee6-4a4e-9104-123b6958425f">
			<g transform="translate(0.500, 0.500)">
				<g>
					<path d=" M28.381,16 h-7 v-4 c0 -1.104 -0.896 -2 -2 -2 h-6 c-1.104,0 -2,0.896 -2,2 v4 h-7 c-0.553,0 -1,0.447 -1,1 v12 c0,0.553,0.447,1,1,1 h24 c0.553,0,1 -0.447,1 -1 V17 C29.381,16.447,28.934,16,28.381,16 z M9.381,27 c0,0.553 -0.447,1 -1,1 h-2 c-0.553,0 -1 -0.447 -1 -1 v-2 c0 -0.553,0.447 -1,1 -1 h2 c0.553,0,1,0.447,1,1 V27 z M9.381,21 c0,0.553 -0.447,1 -1,1 h-2 c-0.553,0 -1 -0.447 -1 -1 v-2 c0 -0.553,0.447 -1,1 -1 h2 c0.553,0,1,0.447,1,1 V21 z M15.381,27 c0,0.553 -0.447,1 -1,1 h-2 c-0.553,0 -1 -0.447 -1 -1 v-2 c0 -0.553,0.447 -1,1 -1 h2 c0.553,0,1,0.447,1,1 V27 z M15.381,21 c0,0.553 -0.447,1 -1,1 h-2 c-0.553,0 -1 -0.447 -1 -1 v-2 c0 -0.553,0.447 -1,1 -1 h2 c0.553,0,1,0.447,1,1 V21 z M21.381,27 c0,0.553 -0.447,1 -1,1 h-2 c-0.553,0 -1 -0.447 -1 -1 v-2 c0 -0.553,0.447 -1,1 -1 h2 c0.553,0,1,0.447,1,1 V27 z M21.381,21 c0,0.553 -0.447,1 -1,1 h-2 c-0.553,0 -1 -0.447 -1 -1 v-2 c0 -0.553,0.447 -1,1 -1 h2 c0.553,0,1,0.447,1,1 V21 z M27.381,27 c0,0.553 -0.447,1 -1,1 h-2 c-0.553,0 -1 -0.447 -1 -1 v-2 c0 -0.553,0.447 -1,1 -1 h2 c0.553,0,1,0.447,1,1 V27 z M27.381,21 c0,0.553 -0.447,1 -1,1 h-2 c-0.553,0 -1 -0.447 -1 -1 v-2 c0 -0.553,0.447 -1,1 -1 h2 c0.553,0,1,0.447,1,1 V21 z"></path>
					<polygon points="14.719,5.116 16.381,4.242 18.043,5.116 17.726,3.266 19.071,1.954 17.212,1.684 16.381,0 15.55,1.684    13.69,1.954 15.036,3.266  "></polygon>
					<polygon points="22.028,7.944 23.69,7.07 25.353,7.944 25.035,6.094 26.381,4.782 24.521,4.512 23.69,2.828 22.859,4.512 21,4.782    22.346,6.094  "></polygon>
					<polygon points="7.028,7.944 8.69,7.07 10.353,7.944 10.035,6.094 11.381,4.782 9.521,4.512 8.69,2.828 7.859,4.512 6,4.782    7.346,6.094  "></polygon>
					<polygon points="32.381,9.666 30.521,9.396 29.69,7.712 28.859,9.396 27,9.666 28.346,10.978 28.028,12.828 29.69,11.954    31.353,12.828 31.035,10.978  "></polygon>
					<polygon points="4.035,10.978 5.381,9.666 3.521,9.396 2.69,7.712 1.859,9.396 0,9.666 1.346,10.978 1.028,12.828 2.69,11.954    4.353,12.828  "></polygon>
				</g>
			</g>
		</g>
		<mask id="mask-97536387-411e-4ce0-b3d7-30329d37f0a2" x="70.574" y="70.111" width="858.852" height="859.778" maskUnits="userSpaceOnUse" stroke-width="0">
			<rect x="109.613" y="109.150" width="780.775" height="781.701" fill="#fff"></rect>
			<use xlink:href="#def-76b6043f-3e20-4b7f-9f6e-0c2f5caeddaf"></use>
			<use xlink:href="#def-2db8d376-5ee6-4a4e-9104-123b6958425f"></use>
		</mask>
		<g mask="url(#mask-97536387-411e-4ce0-b3d7-30329d37f0a2)" id="def-425cb6ee-1e05-4cfc-a59f-49714e8651de">
			<use xlink:href="#def-dfeb6005-f128-494a-b139-56365135f4f4" stroke-width="29.662"></use>
		</g>
		<mask id="mask-29168b7b-8f99-4344-acae-4ca448aa1637" x="70.574" y="70.111" width="858.852" height="859.778" maskUnits="userSpaceOnUse" stroke-width="0">
			<rect x="109.613" y="109.150" width="780.775" height="781.701" fill="#000"></rect>
			<use xlink:href="#def-425cb6ee-1e05-4cfc-a59f-49714e8651de" fill="#fff" stroke="#fff"></use>
		</mask>
	</defs>
	<rect id="background-shape-6a8bf1e6-50fd-40a4-8589-100e734288cf" x="0" y="0" width="1000" height="1000" fill="#ffffff"></rect>
	<g mask="url(#mask-29168b7b-8f99-4344-acae-4ca448aa1637)">
		<rect x="109.613" y="109.150" width="780.775" height="781.701" fill="#00c7ff"></rect>
	</g>
</svg>
